<svg width="190" height="119" viewBox="0 0 190 119" fill="none" xmlns="http://www.w3.org/2000/svg">
<path d="M191.667 31.3868L122.035 55.1985L52.3329 31.3868L19 79.8582L122.035 115.117L225 79.8582L191.667 31.3868Z" fill="#4E2999"/>
<path opacity="0.45" d="M31.1467 77.8798L116.598 110.594L87.2194 81.4833C87.2194 81.4833 38.9856 69.8247 31.1467 77.8798Z" fill="#240F4F"/>
<path opacity="0.45" d="M212.924 77.8798L127.473 110.594L156.851 81.4833C156.781 81.4833 205.014 69.8247 212.924 77.8798Z" fill="#240F4F"/>
<path d="M122.035 115.117L19 79.8582V84.451L122.035 119.709L225 84.451V79.8582L122.035 115.117Z" fill="#994EF8"/>
<path d="M67.1632 136.314L79.0981 105.012L117.516 118.155L67.1632 136.314Z" fill="#3B1E77"/>
<path opacity="0.45" d="M70.4824 127.27L117.516 118.155L79.0981 105.012L70.4824 127.27Z" fill="#3B1E77"/>
<path d="M122.035 116.53L67.1632 136.314L71.2592 140.624L122.035 122.536L172.741 140.624L176.907 136.314L122.035 116.53Z" fill="#994EF8"/>
<path d="M176.907 136.314L164.902 105.012L126.484 118.155L176.907 136.314Z" fill="#3B1E77"/>
<path opacity="0.45" d="M173.518 127.27L126.484 118.155L164.902 105.012L173.518 127.27Z" fill="#3B1E77"/>
<path d="M122.035 122.536C124.102 122.536 125.778 120.859 125.778 118.791C125.778 116.723 124.102 115.046 122.035 115.046C119.968 115.046 118.292 116.723 118.292 118.791C118.292 120.859 119.968 122.536 122.035 122.536Z" fill="white" fill-opacity="0.5"/>
<path d="M188.701 31.3868L122.035 64.5961L55.3696 31.3868C52.3329 35.4143 27.8982 76.184 27.8982 76.184C28.1807 76.184 28.3925 76.2546 28.675 76.2546C89.9736 82.4019 106.993 101.692 112.643 106.355C118.292 111.089 122.106 110.594 122.106 110.594C122.106 110.594 125.919 111.089 131.569 106.355C137.219 101.692 154.238 82.4019 215.537 76.2546C215.819 76.2546 216.031 76.184 216.314 76.184C216.172 76.184 191.667 35.485 188.701 31.3868Z" fill="#F5B304"/>
<path d="M216.172 76.184C215.89 76.184 215.678 76.2546 215.396 76.2546C154.097 82.4019 137.077 101.692 131.428 106.355C125.778 111.089 121.965 110.594 121.965 110.594C121.965 110.594 118.151 111.089 112.502 106.355C106.852 101.692 89.8324 82.4019 28.5338 76.2546C28.2513 76.2546 28.0394 76.184 27.7569 76.184C27.2626 76.9612 27.7569 77.5265 27.7569 77.5265C89.6911 83.5324 106.146 102.893 111.795 107.627C117.445 112.29 121.894 111.937 121.894 111.937C121.894 111.937 126.343 112.29 131.993 107.627C137.642 102.963 154.097 83.6031 216.031 77.5265C216.172 77.5265 216.667 76.9612 216.172 76.184Z" fill="#994EF8"/>
<path d="M186.159 27.5006C152.049 19.3043 121.965 47.3555 121.965 47.3555C121.965 47.3555 91.8804 19.3043 57.7707 27.5006C57.7707 27.5006 48.0957 42.3388 34.7484 67.5637C34.7484 67.5637 101.908 75.1241 121.965 103.317C142.021 75.1241 209.181 67.5637 209.181 67.5637C195.834 42.3388 186.159 27.5006 186.159 27.5006Z" fill="#F5EFFB"/>
<path d="M209.181 67.5637C209.181 67.5637 142.021 75.1241 121.965 103.317C101.979 75.1241 34.819 67.5637 34.819 67.5637C34.819 67.5637 34.819 69.8247 31.0761 74.2762C31.0761 74.2762 92.0216 78.657 114.196 103.953C119.422 109.888 121.965 109.181 121.965 109.181C121.965 109.181 124.578 109.888 129.733 103.953C151.837 78.657 212.853 74.2762 212.853 74.2762C209.181 69.7541 209.181 67.5637 209.181 67.5637Z" fill="#DFCBF4"/>
<path d="M182.345 30.4682C182.345 30.4682 156.851 23.9677 121.965 51.0297C87.1488 24.0384 61.5842 30.4682 61.5842 30.4682L44.3528 63.9602C96.7532 67.5637 121.965 94.0604 121.965 94.0604C121.965 94.0604 147.176 67.5637 199.577 63.9602L182.345 30.4682ZM122.035 90.8808C122.035 90.8808 98.4481 66.7158 48.4488 61.9817L62.926 31.8814C62.926 31.8814 87.9963 27.006 122.035 52.5842C156.074 27.006 181.145 31.8814 181.145 31.8814L195.622 61.9817C145.623 66.7158 122.035 90.8808 122.035 90.8808Z" fill="#863ED5"/>
<path opacity="0.2" d="M128.462 76.2502C137.878 69.3022 167.303 53.9267 187.077 56.0464" stroke="#863ED5" stroke-width="3" stroke-linecap="round"/>
<path opacity="0.2" d="M128.462 56.753C136.819 50.2063 158.546 37.3792 178.602 38.4444" stroke="#863ED5" stroke-width="3" stroke-linecap="round"/>
<path opacity="0.2" d="M128.462 66.6451C137.525 59.5948 161.088 45.781 182.84 46.9282" stroke="#863ED5" stroke-width="3" stroke-linecap="round"/>
<path opacity="0.2" d="M116.456 76.2502C107.04 69.3022 77.615 53.9267 57.8413 56.0464" stroke="#863ED5" stroke-width="3" stroke-linecap="round"/>
<path opacity="0.2" d="M116.456 56.753C108.1 50.2063 86.372 37.3792 66.3157 38.4444" stroke="#863ED5" stroke-width="3" stroke-linecap="round"/>
<path opacity="0.2" d="M116.456 66.6451C107.393 59.5948 83.8296 45.781 62.0785 46.9282" stroke="#863ED5" stroke-width="3" stroke-linecap="round"/>
<path d="M122.035 47.3555C122.035 47.3555 122.742 44.8825 124.083 45.5891C124.083 45.5891 123.236 85.6521 124.648 101.268C125.001 105.154 128.391 110.453 129.733 112.432H127.967L127.473 114.057C127.473 114.057 122.247 105.224 122.035 101.762C120.976 86.2174 121.541 51.1004 122.035 47.3555Z" fill="#54DAF5"/>
</svg>
