<svg width="292" height="227" viewBox="0 0 292 227" fill="none" xmlns="http://www.w3.org/2000/svg">
<path d="M99.4413 11.344V31H94.6533V19.212L90.2573 31H86.3933L81.9693 19.184V31H77.1813V11.344H82.8373L88.3533 24.952L93.8133 11.344H99.4413ZM118.844 15.376L109.044 38.42H103.892L107.476 30.468L101.12 15.376H106.468L110.08 25.148L113.664 15.376H118.844ZM140.509 34.36L137.989 30.972C137.243 31.1213 136.515 31.196 135.805 31.196C133.957 31.196 132.259 30.7667 130.709 29.908C129.179 29.0493 127.956 27.8547 127.041 26.324C126.145 24.7747 125.697 23.0387 125.697 21.116C125.697 19.1933 126.145 17.4667 127.041 15.936C127.956 14.4053 129.179 13.2107 130.709 12.352C132.259 11.4933 133.957 11.064 135.805 11.064C137.653 11.064 139.343 11.4933 140.873 12.352C142.423 13.2107 143.636 14.4053 144.513 15.936C145.409 17.4667 145.857 19.1933 145.857 21.116C145.857 22.796 145.512 24.336 144.821 25.736C144.149 27.1173 143.207 28.2653 141.993 29.18L146.305 34.36H140.509ZM130.597 21.116C130.597 22.852 131.064 24.2427 131.997 25.288C132.949 26.3147 134.219 26.828 135.805 26.828C137.373 26.828 138.624 26.3053 139.557 25.26C140.509 24.2147 140.985 22.8333 140.985 21.116C140.985 19.38 140.509 17.9987 139.557 16.972C138.624 15.9267 137.373 15.404 135.805 15.404C134.219 15.404 132.949 15.9173 131.997 16.944C131.064 17.9707 130.597 19.3613 130.597 21.116ZM164.004 15.376V31H159.216V28.872C158.731 29.5627 158.068 30.1227 157.228 30.552C156.407 30.9627 155.492 31.168 154.484 31.168C153.289 31.168 152.235 30.9067 151.32 30.384C150.405 29.8427 149.696 29.068 149.192 28.06C148.688 27.052 148.436 25.8667 148.436 24.504V15.376H153.196V23.86C153.196 24.9053 153.467 25.7173 154.008 26.296C154.549 26.8747 155.277 27.164 156.192 27.164C157.125 27.164 157.863 26.8747 158.404 26.296C158.945 25.7173 159.216 24.9053 159.216 23.86V15.376H164.004ZM172.231 17.98C172.791 17.1213 173.491 16.4493 174.331 15.964C175.171 15.46 176.104 15.208 177.131 15.208V20.276H175.815C174.62 20.276 173.724 20.5373 173.127 21.06C172.53 21.564 172.231 22.46 172.231 23.748V31H167.443V15.376H172.231V17.98ZM178.468 23.16C178.468 21.5547 178.766 20.1453 179.364 18.932C179.98 17.7187 180.81 16.7853 181.856 16.132C182.901 15.4787 184.068 15.152 185.356 15.152C186.457 15.152 187.418 15.376 188.24 15.824C189.08 16.272 189.724 16.86 190.172 17.588V15.376H194.96V31H190.172V28.788C189.705 29.516 189.052 30.104 188.212 30.552C187.39 31 186.429 31.224 185.328 31.224C184.058 31.224 182.901 30.8973 181.856 30.244C180.81 29.572 179.98 28.6293 179.364 27.416C178.766 26.184 178.468 24.7653 178.468 23.16ZM190.172 23.188C190.172 21.9933 189.836 21.0507 189.164 20.36C188.51 19.6693 187.708 19.324 186.756 19.324C185.804 19.324 184.992 19.6693 184.32 20.36C183.666 21.032 183.34 21.9653 183.34 23.16C183.34 24.3547 183.666 25.3067 184.32 26.016C184.992 26.7067 185.804 27.052 186.756 27.052C187.708 27.052 188.51 26.7067 189.164 26.016C189.836 25.3253 190.172 24.3827 190.172 23.188ZM207.944 15.208C209.773 15.208 211.229 15.8053 212.312 17C213.413 18.176 213.964 19.8 213.964 21.872V31H209.204V22.516C209.204 21.4707 208.933 20.6587 208.392 20.08C207.85 19.5013 207.122 19.212 206.208 19.212C205.293 19.212 204.565 19.5013 204.024 20.08C203.482 20.6587 203.212 21.4707 203.212 22.516V31H198.424V15.376H203.212V17.448C203.697 16.7573 204.35 16.216 205.172 15.824C205.993 15.4133 206.917 15.208 207.944 15.208Z" fill="#672CBC"/>
<path opacity="0.25" d="M145.9 226.324C215.433 226.324 271.8 213.206 271.8 197.024C271.8 180.842 215.433 167.724 145.9 167.724C76.3674 167.724 20 180.842 20 197.024C20 213.206 76.3674 226.324 145.9 226.324Z" fill="#042030"/>
<path d="M244.5 55.6238L145.9 89.3238L47.2 55.6238L0 124.224L145.9 174.124L291.7 124.224L244.5 55.6238Z" fill="#4E2999"/>
<path opacity="0.45" d="M17.2 121.424L138.2 167.724L96.6 126.524C96.6 126.524 28.3 110.024 17.2 121.424Z" fill="#240F4F"/>
<path opacity="0.45" d="M274.6 121.424L153.6 167.724L195.2 126.524C195.1 126.524 263.4 110.024 274.6 121.424Z" fill="#240F4F"/>
<path d="M145.9 174.124L0 124.224V130.724L145.9 180.624L291.7 130.724V124.224L145.9 174.124Z" fill="#994EF8"/>
<path d="M68.2 204.124L85.1 159.824L139.5 178.424L68.2 204.124Z" fill="#3B1E77"/>
<path opacity="0.45" d="M72.9 191.324L139.5 178.424L85.1 159.824L72.9 191.324Z" fill="#3B1E77"/>
<path d="M145.9 176.124L68.2 204.124L74 210.224L145.9 184.624L217.7 210.224L223.6 204.124L145.9 176.124Z" fill="#994EF8"/>
<path d="M223.6 204.124L206.6 159.824L152.2 178.424L223.6 204.124Z" fill="#3B1E77"/>
<path opacity="0.45" d="M218.8 191.324L152.2 178.424L206.6 159.824L218.8 191.324Z" fill="#3B1E77"/>
<path d="M145.9 184.624C148.827 184.624 151.2 182.251 151.2 179.324C151.2 176.397 148.827 174.024 145.9 174.024C142.973 174.024 140.6 176.397 140.6 179.324C140.6 182.251 142.973 184.624 145.9 184.624Z" fill="white" fill-opacity="0.5"/>
<path d="M240.3 55.6238L145.9 102.624L51.5 55.6238C47.2 61.3238 12.6 119.024 12.6 119.024C13 119.024 13.3 119.124 13.7 119.124C100.5 127.824 124.6 155.124 132.6 161.724C140.6 168.424 146 167.724 146 167.724C146 167.724 151.4 168.424 159.4 161.724C167.4 155.124 191.5 127.824 278.3 119.124C278.7 119.124 279 119.024 279.4 119.024C279.2 119.024 244.5 61.4238 240.3 55.6238Z" fill="#F5B304"/>
<path d="M279.2 119.024C278.8 119.024 278.5 119.124 278.1 119.124C191.3 127.824 167.2 155.124 159.2 161.724C151.2 168.424 145.8 167.724 145.8 167.724C145.8 167.724 140.4 168.424 132.4 161.724C124.4 155.124 100.3 127.824 13.5 119.124C13.1 119.124 12.8 119.024 12.4 119.024C11.7 120.124 12.4 120.924 12.4 120.924C100.1 129.424 123.4 156.824 131.4 163.524C139.4 170.124 145.7 169.624 145.7 169.624C145.7 169.624 152 170.124 160 163.524C168 156.924 191.3 129.524 279 120.924C279.2 120.924 279.9 120.124 279.2 119.024Z" fill="#994EF8"/>
<path d="M236.7 50.1238C188.4 38.5238 145.8 78.2238 145.8 78.2238C145.8 78.2238 103.2 38.5238 54.9 50.1238C54.9 50.1238 41.2 71.1238 22.3 106.824C22.3 106.824 117.4 117.524 145.8 157.424C174.2 117.524 269.3 106.824 269.3 106.824C250.4 71.1238 236.7 50.1238 236.7 50.1238Z" fill="#F5EFFB"/>
<path d="M269.3 106.824C269.3 106.824 174.2 117.524 145.8 157.424C117.5 117.524 22.4 106.824 22.4 106.824C22.4 106.824 22.4 110.024 17.1 116.324C17.1 116.324 103.4 122.524 134.8 158.324C142.2 166.724 145.8 165.724 145.8 165.724C145.8 165.724 149.5 166.724 156.8 158.324C188.1 122.524 274.5 116.324 274.5 116.324C269.3 109.924 269.3 106.824 269.3 106.824Z" fill="#DFCBF4"/>
<path d="M231.3 54.3238C231.3 54.3238 195.2 45.1238 145.8 83.4238C96.5 45.2238 60.3 54.3238 60.3 54.3238L35.9 101.724C110.1 106.824 145.8 144.324 145.8 144.324C145.8 144.324 181.5 106.824 255.7 101.724L231.3 54.3238ZM145.9 139.824C145.9 139.824 112.5 105.624 41.7 98.9238L62.2 56.3238C62.2 56.3238 97.7 49.4238 145.9 85.6238C194.1 49.4238 229.6 56.3238 229.6 56.3238L250.1 98.9238C179.3 105.624 145.9 139.824 145.9 139.824Z" fill="#863ED5"/>
<path opacity="0.2" d="M155 119.118C168.333 109.284 210 87.5238 238 90.5238" stroke="#863ED5" stroke-width="3" stroke-linecap="round"/>
<path opacity="0.2" d="M155 91.5238C166.833 82.2584 197.6 64.1046 226 65.6122" stroke="#863ED5" stroke-width="3" stroke-linecap="round"/>
<path opacity="0.2" d="M155 105.524C167.833 95.5457 201.2 75.9954 232 77.6189" stroke="#863ED5" stroke-width="3" stroke-linecap="round"/>
<path opacity="0.2" d="M138 119.118C124.667 109.284 83 87.5238 55 90.5238" stroke="#863ED5" stroke-width="3" stroke-linecap="round"/>
<path opacity="0.2" d="M138 91.5238C126.167 82.2584 95.4 64.1046 67 65.6122" stroke="#863ED5" stroke-width="3" stroke-linecap="round"/>
<path opacity="0.2" d="M138 105.524C125.167 95.5457 91.8 75.9954 61 77.6189" stroke="#863ED5" stroke-width="3" stroke-linecap="round"/>
<path d="M145.9 78.2238C145.9 78.2238 146.9 74.7238 148.8 75.7238C148.8 75.7238 147.6 132.424 149.6 154.524C150.1 160.024 154.9 167.524 156.8 170.324H154.3L153.6 172.624C153.6 172.624 146.2 160.124 145.9 155.224C144.4 133.224 145.2 83.5238 145.9 78.2238Z" fill="#54DAF5"/>
</svg>
